<svg width="24" height="24" viewBox="0 0 24 24" fill="none" xmlns="http://www.w3.org/2000/svg">
  <path
    d="M11.9999 21.4012H5.93993C2.46993 21.4012 1.01993 18.9212 2.69993 15.8912L5.81993 10.2712L8.75993 4.99124C10.5399 1.78124 13.4599 1.78124 15.2399 4.99124L18.1799 10.2812L21.2999 15.9012C22.9799 18.9312 21.5199 21.4112 18.0599 21.4112H11.9999V21.4012Z"
    fill="#FBF3DD" />
  <path
    d="M12 8.99124V13.9912M11.9946 16.9912H12.0036M11.9999 21.4012H5.93993C2.46993 21.4012 1.01993 18.9212 2.69993 15.8912L5.81993 10.2712L8.75993 4.99124C10.5399 1.78124 13.4599 1.78124 15.2399 4.99124L21.2999 15.9012C22.9799 18.9312 21.5199 21.4112 18.0599 21.4112H11.9999V21.4012Z"
    stroke="#F38000" stroke-width="1.5" stroke-linecap="round" stroke-linejoin="round" />
</svg>
