<svg width="24" height="24" viewBox="0 0 24 24" fill="none" xmlns="http://www.w3.org/2000/svg">
  <path fill-rule="evenodd" clip-rule="evenodd"
    d="M1.25 11.9912C1.25 6.077 6.08579 1.24121 12 1.24121C17.9142 1.24121 22.75 6.077 22.75 11.9912C22.75 17.9054 17.9142 22.7412 12 22.7412C6.08579 22.7412 1.25 17.9054 1.25 11.9912ZM16.7799 9.69202C17.073 9.39939 17.0734 8.92451 16.7808 8.63136C16.4882 8.33821 16.0133 8.33779 15.7201 8.63043L10.5805 13.761L8.28033 11.4609C7.98744 11.168 7.51256 11.168 7.21967 11.4609C6.92678 11.7538 6.92678 12.2287 7.21967 12.5216L10.0497 15.3516C10.3424 15.6443 10.8169 15.6445 11.1099 15.352L16.7799 9.69202Z"
    fill="#1CC487" />
</svg>