<svg width="24" height="24" viewBox="0 0 24 24" fill="none" xmlns="http://www.w3.org/2000/svg">
  <path
    d="M12 21.9912C17.5 21.9912 22 17.4912 22 11.9912C22 6.49121 17.5 1.99121 12 1.99121C6.5 1.99121 2 6.49121 2 11.9912C2 17.4912 6.5 21.9912 12 21.9912Z"
    fill="#ECFFF8" />
  <path
    d="M7.75 11.9912L10.58 14.8212L16.25 9.16122M12 21.9912C17.5 21.9912 22 17.4912 22 11.9912C22 6.49121 17.5 1.99121 12 1.99121C6.5 1.99121 2 6.49121 2 11.9912C2 17.4912 6.5 21.9912 12 21.9912Z"
    stroke="#1CC487" stroke-width="1.5" stroke-linecap="round" stroke-linejoin="round" />
</svg>