<svg width="24" height="24" viewBox="0 0 24 24" fill="none" xmlns="http://www.w3.org/2000/svg">
  <path fill-rule="evenodd" clip-rule="evenodd"
    d="M1.25 11.9912C1.25 6.077 6.08579 1.24121 12 1.24121C17.9142 1.24121 22.75 6.077 22.75 11.9912C22.75 17.9054 17.9142 22.7412 12 22.7412C6.08579 22.7412 1.25 17.9054 1.25 11.9912ZM15.3603 8.63089C15.6531 8.92379 15.6531 9.39866 15.3603 9.69155L13.0606 11.9912L15.3603 14.2909C15.6531 14.5838 15.6531 15.0587 15.3603 15.3516C15.0674 15.6444 14.5925 15.6444 14.2996 15.3516L11.9999 13.0519L9.70025 15.3516C9.40736 15.6444 8.93249 15.6444 8.63959 15.3516C8.3467 15.0587 8.3467 14.5838 8.63959 14.2909L10.9393 11.9912L8.63959 9.69155C8.3467 9.39866 8.3467 8.92379 8.63959 8.63089C8.93249 8.338 9.40736 8.338 9.70025 8.63089L11.9999 10.9306L14.2996 8.63089C14.5925 8.338 15.0674 8.338 15.3603 8.63089Z"
    fill="#DA473F" />
</svg>