<svg width="24" height="24" viewBox="0 0 24 24" fill="none" xmlns="http://www.w3.org/2000/svg">
  <path fill-rule="evenodd" clip-rule="evenodd"
    d="M12 1.24121C6.06294 1.24121 1.25 6.05415 1.25 11.9912C1.25 17.9283 6.06294 22.7412 12 22.7412C17.9371 22.7412 22.75 17.9283 22.75 11.9912C22.75 6.05415 17.9371 1.24121 12 1.24121ZM11.2446 15.9912C11.2446 15.577 11.5804 15.2412 11.9946 15.2412H12.0036C12.4178 15.2412 12.7536 15.577 12.7536 15.9912C12.7536 16.4054 12.4178 16.7412 12.0036 16.7412H11.9946C11.5804 16.7412 11.2446 16.4054 11.2446 15.9912ZM10.75 9.99121C10.75 9.30085 11.3096 8.74121 12 8.74121C12.6904 8.74121 13.25 9.30085 13.25 9.99121V10.1125C13.25 10.4762 13.1055 10.825 12.8483 11.0822L11.4697 12.4609C11.1768 12.7538 11.1768 13.2286 11.4697 13.5215C11.7626 13.8144 12.2374 13.8144 12.5303 13.5215L13.909 12.1429C14.4475 11.6044 14.75 10.8741 14.75 10.1125V9.99121C14.75 8.47243 13.5188 7.24121 12 7.24121C10.4812 7.24121 9.25 8.47243 9.25 9.99121V10.4912C9.25 10.9054 9.58579 11.2412 10 11.2412C10.4142 11.2412 10.75 10.9054 10.75 10.4912V9.99121Z"
    fill="#FF961F" />
</svg>