<svg width="24" height="24" viewBox="0 0 24 24" fill="none" xmlns="http://www.w3.org/2000/svg">
  <path
    d="M22 11.9912C22 17.5141 17.5228 21.9912 12 21.9912C6.47715 21.9912 2 17.5141 2 11.9912C2 6.46836 6.47715 1.99121 12 1.99121C17.5228 1.99121 22 6.46836 22 11.9912Z"
    fill="#FBF3DD" />
  <path
    d="M11.9946 15.9912H12.0036M10 10.4912V9.99121C10 8.88664 10.8954 7.99121 12 7.99121C13.1046 7.99121 14 8.88664 14 9.99121V10.1125C14 10.6751 13.7765 11.2147 13.3787 11.6125L12 12.9912M22 11.9912C22 17.5141 17.5228 21.9912 12 21.9912C6.47715 21.9912 2 17.5141 2 11.9912C2 6.46836 6.47715 1.99121 12 1.99121C17.5228 1.99121 22 6.46836 22 11.9912Z"
    stroke="#F38000" stroke-width="1.5" stroke-linecap="round" stroke-linejoin="round" />
</svg>