<svg width="24" height="24" viewBox="0 0 24 24" fill="none" xmlns="http://www.w3.org/2000/svg">
  <path
    d="M12 21.9912C17.5228 21.9912 22 17.5141 22 11.9912C22 6.46836 17.5228 1.99121 12 1.99121C6.47715 1.99121 2 6.46836 2 11.9912C2 17.5141 6.47715 21.9912 12 21.9912Z"
    fill="#EDF0F2" />
  <path
    d="M12 21.9912C17.5228 21.9912 22 17.5141 22 11.9912C22 6.46836 17.5228 1.99121 12 1.99121C6.47715 1.99121 2 6.46836 2 11.9912C2 17.5141 6.47715 21.9912 12 21.9912Z"
    stroke="#333333" stroke-width="1.5" stroke-linecap="round" stroke-linejoin="round" />
  <path d="M12 11.9912H12.009M7 11.9912H7.00898M17 11.9912H17.009" stroke="#333333" stroke-width="3"
    stroke-linecap="round" stroke-linejoin="round" />
</svg>