<svg width="24" height="24" viewBox="0 0 24 24" fill="none" xmlns="http://www.w3.org/2000/svg">
  <path fill-rule="evenodd" clip-rule="evenodd"
    d="M1.25 11.9912C1.25 6.05415 6.06294 1.24121 12 1.24121C17.9371 1.24121 22.75 6.05415 22.75 11.9912C22.75 17.9283 17.9371 22.7412 12 22.7412C6.06294 22.7412 1.25 17.9283 1.25 11.9912ZM12 10.4912C11.1716 10.4912 10.5 11.1628 10.5 11.9912C10.5 12.8196 11.1716 13.4912 12 13.4912H12.009C12.8374 13.4912 13.509 12.8196 13.509 11.9912C13.509 11.1628 12.8374 10.4912 12.009 10.4912H12ZM5.5 11.9912C5.5 11.1628 6.17157 10.4912 7 10.4912H7.00898C7.83741 10.4912 8.50898 11.1628 8.50898 11.9912C8.50898 12.8196 7.83741 13.4912 7.00898 13.4912H7C6.17157 13.4912 5.5 12.8196 5.5 11.9912ZM17 10.4912C16.1716 10.4912 15.5 11.1628 15.5 11.9912C15.5 12.8196 16.1716 13.4912 17 13.4912H17.009C17.8374 13.4912 18.509 12.8196 18.509 11.9912C18.509 11.1628 17.8374 10.4912 17.009 10.4912H17Z"
    fill="#333333" />
</svg>