<svg width="24" height="24" viewBox="0 0 24 24" fill="none" xmlns="http://www.w3.org/2000/svg">
  <path fill-rule="evenodd" clip-rule="evenodd"
    d="M1.25 11.9912C1.25 6.05415 6.06294 1.24121 12 1.24121C17.9371 1.24121 22.75 6.05415 22.75 11.9912C22.75 17.9283 17.9371 22.7412 12 22.7412C6.06294 22.7412 1.25 17.9283 1.25 11.9912ZM16.7673 11.9189C17.1772 11.978 17.4616 12.3583 17.4024 12.7683C17.2415 13.8836 16.7452 14.9868 15.8704 15.8615L15.869 15.863C13.869 17.8522 10.7161 17.9856 8.57007 16.2571V17.1712C8.57007 17.5854 8.23428 17.9212 7.82007 17.9212C7.40585 17.9212 7.07007 17.5854 7.07007 17.1712V14.5012C7.07007 14.087 7.40585 13.7512 7.82007 13.7512H7.99502C8.00462 13.751 8.01422 13.751 8.02381 13.7512H10.4901C10.9043 13.7512 11.2401 14.087 11.2401 14.5012C11.2401 14.9154 10.9043 15.2512 10.4901 15.2512H9.7278C11.2733 16.329 13.422 16.1805 14.8105 14.8002C15.4353 14.175 15.7988 13.3785 15.9178 12.554C15.977 12.1441 16.3573 11.8597 16.7673 11.9189ZM15.9785 10.2312H13.51C13.0958 10.2312 12.76 9.89541 12.76 9.4812C12.76 9.06699 13.0958 8.7312 13.51 8.7312H14.2695C12.7155 7.65195 10.5679 7.80385 9.19028 9.18151C8.564 9.80779 8.20131 10.5949 8.0824 11.4273C8.02382 11.8373 7.64392 12.1223 7.23387 12.0637C6.82382 12.0051 6.5389 11.6252 6.59748 11.2152C6.75856 10.0875 7.25589 8.99457 8.12962 8.12085C10.123 6.12745 13.2773 5.99819 15.43 7.72685V6.81122C15.43 6.397 15.7658 6.06122 16.18 6.06122C16.5942 6.06122 16.93 6.397 16.93 6.81122V9.4812C16.93 9.89541 16.5942 10.2312 16.18 10.2312H16.0028C15.9947 10.2313 15.9866 10.2313 15.9785 10.2312Z"
    fill="#FF961F" />
</svg>