<svg width="24" height="24" viewBox="0 0 24 24" fill="none" xmlns="http://www.w3.org/2000/svg">
  <path
    d="M12 21.9912C17.5228 21.9912 22 17.5141 22 11.9912C22 6.46836 17.5228 1.99121 12 1.99121C6.47715 1.99121 2 6.46836 2 11.9912C2 17.5141 6.47715 21.9912 12 21.9912Z"
    fill="#FBF3DD" />
  <path
    d="M8.01001 14.5012C8.19001 14.8012 8.41 15.0812 8.66 15.3312C10.5 17.1712 13.49 17.1712 15.34 15.3312C16.09 14.5812 16.52 13.6312 16.66 12.6612M7.34009 11.3212C7.48009 10.3412 7.9101 9.40118 8.6601 8.65118C10.5001 6.81118 13.4901 6.81118 15.3401 8.65118C15.6001 8.91118 15.8101 9.1912 15.9901 9.4812M7.82007 17.1712V14.5012H10.4901M16.18 6.81122V9.4812H13.51M22 11.9912C22 17.5141 17.5228 21.9912 12 21.9912C6.47715 21.9912 2 17.5141 2 11.9912C2 6.46836 6.47715 1.99121 12 1.99121C17.5228 1.99121 22 6.46836 22 11.9912Z"
    stroke="#F38000" stroke-width="1.5" stroke-linecap="round" stroke-linejoin="round" />
</svg>