<svg width="24" height="24" viewBox="0 0 24 24" fill="none" xmlns="http://www.w3.org/2000/svg">
  <path fill-rule="evenodd" clip-rule="evenodd"
    d="M12 1.24121C6.08579 1.24121 1.25 6.077 1.25 11.9912C1.25 17.9054 6.08579 22.7412 12 22.7412C17.9142 22.7412 22.75 17.9054 22.75 11.9912C22.75 6.077 17.9142 1.24121 12 1.24121ZM12 7.24121C12.4142 7.24121 12.75 7.577 12.75 7.99121V12.9912C12.75 13.4054 12.4142 13.7412 12 13.7412C11.5858 13.7412 11.25 13.4054 11.25 12.9912V7.99121C11.25 7.577 11.5858 7.24121 12 7.24121ZM11.9946 15.2412C11.5804 15.2412 11.2446 15.577 11.2446 15.9912C11.2446 16.4054 11.5804 16.7412 11.9946 16.7412H12.0036C12.4178 16.7412 12.7536 16.4054 12.7536 15.9912C12.7536 15.577 12.4178 15.2412 12.0036 15.2412H11.9946Z"
    fill="#FFBC70" />
  <path d="M12 7.99121V12.9912M11.9946 15.9912H12.0036" stroke="#232933" stroke-width="1.5"
    stroke-linecap="round" stroke-linejoin="round" />
</svg>
