<svg width="24" height="24" viewBox="0 0 24 24" fill="none" xmlns="http://www.w3.org/2000/svg">
  <path
    d="M12 21.9912C17.5 21.9912 22 17.4912 22 11.9912C22 6.49121 17.5 1.99121 12 1.99121C6.5 1.99121 2 6.49121 2 11.9912C2 17.4912 6.5 21.9912 12 21.9912Z"
    fill="#FBF3DD" stroke="#F38000" stroke-width="1.5" stroke-linecap="round"
    stroke-linejoin="round" />
  <path
    d="M12 7.99121V12.9912M11.9946 15.9912H12.0036M12 21.9912C17.5 21.9912 22 17.4912 22 11.9912C22 6.49121 17.5 1.99121 12 1.99121C6.5 1.99121 2 6.49121 2 11.9912C2 17.4912 6.5 21.9912 12 21.9912Z"
    stroke="#F38000" stroke-width="1.5" stroke-linecap="round" stroke-linejoin="round" />
</svg>
